<svg width="26" height="23" viewBox="0 0 26 23" fill="none" xmlns="http://www.w3.org/2000/svg">
<g clip-path="url(#clip0)">
<path d="M3.55371 10.866C3.55371 16.778 8.3988 21.5474 14.4047 21.5474C20.4106 21.5474 25.2052 16.778 25.2052 10.866H14.3542H3.55371Z" fill="#DC4C2C"/>
<path d="M14.3545 0.234131V10.8659H25.2055C25.2055 5.00351 20.3604 0.234131 14.3545 0.234131Z" fill="#F7A278"/>
<path d="M14.3542 0.234619C8.39883 0.234619 3.55371 5.004 3.55371 10.8664H14.4047V0.234619H14.3542Z" fill="#C06346"/>
<path d="M12.1342 16.8279H2.14123C1.58606 16.8279 1.13184 16.3808 1.13184 15.8342V5.94773C1.13184 5.40124 1.58606 4.9541 2.14123 4.9541H12.1342C12.6894 4.9541 13.1436 5.40124 13.1436 5.94773V15.8342C13.1436 16.3808 12.6894 16.8279 12.1342 16.8279Z" fill="#9B341F"/>
<path d="M7.54113 7.93506H4.71484V13.8471H5.92612V11.7604H7.28879C8.39916 11.7604 9.35808 10.8662 9.35808 9.72354V9.67385C9.35808 8.72991 8.55054 7.93506 7.54113 7.93506ZM8.09632 9.92226C8.09632 10.4191 7.69258 10.8662 7.13738 10.8662H5.97658V8.879H7.18785C7.69258 8.879 8.1468 9.27642 8.1468 9.82294V9.92226H8.09632Z" fill="white"/>
</g>
<defs>
<clipPath id="clip0">
<rect width="25.3125" height="22.1484" fill="white" transform="translate(0.460938)"/>
</clipPath>
</defs>
</svg>
