<svg width="26" height="23" viewBox="0 0 26 23" fill="none" xmlns="http://www.w3.org/2000/svg">
<path d="M23.7477 0.234619H8.17209C7.58437 0.234619 7.14355 0.679674 7.14355 1.27308V5.57527H24.7762V1.27308C24.7762 0.679674 24.3354 0.234619 23.7477 0.234619Z" fill="#2D92D4"/>
<path d="M7.19238 16.2566V20.5094C7.19238 21.1027 7.63318 21.5478 8.22096 21.5478H23.7965C24.3842 21.5478 24.825 21.1027 24.825 20.5094V16.2566H7.19238Z" fill="#2150A9"/>
<path d="M24.776 5.57495H7.19238V10.9156H24.776V5.57495Z" fill="#2D83D4"/>
<path d="M24.776 10.9158H7.19238V16.2565H24.776V10.9158Z" fill="#2E70C9"/>
<path d="M12.0419 16.8006H2.29502C1.75624 16.8006 1.31543 16.3555 1.31543 15.8116V5.97094C1.31543 5.42699 1.75624 4.98193 2.29502 4.98193H12.0419C12.5808 4.98193 13.0216 5.42699 13.0216 5.97094V15.8116C13.0216 16.3555 12.5808 16.8006 12.0419 16.8006Z" fill="#00488D"/>
<path d="M9.73925 7.94873L8.85764 12.2509L7.82904 7.94873H6.55559L5.52702 12.3498L4.59641 7.94873H3.4209L4.79233 13.8828H6.21273L7.19233 9.28387L8.2209 13.8828H9.54332L10.9148 7.94873H9.73925Z" fill="white"/>
</svg>
